<?xml version="1.0" encoding="utf-8"?>
<!-- Generator: Adobe Illustrator 24.1.0, SVG Export Plug-In . SVG Version: 6.00 Build 0)  -->
<svg version="1.1" id="Layer_1" xmlns="http://www.w3.org/2000/svg" xmlns:xlink="http://www.w3.org/1999/xlink" x="0px" y="0px"
	 viewBox="0 0 250 250" style="enable-background:new 0 0 250 250;" xml:space="preserve">
<style type="text/css">
	.st0{fill:#F10404;}
</style>
<g>
	<g>
		<path class="st0" d="M245.8,206C245.8,206,245.8,206,245.8,206c-16.4-33.6-43.8-81.3-68.1-123.3c-12.7-22-24.7-42.8-33.3-58.6
			c-4.1-7.5-11.3-11.9-19.4-11.9s-15.3,4.5-19.4,11.9c-8.7,15.8-20.6,36.6-33.3,58.6c-24.2,42-51.7,89.7-68,123.3
			c-1.5,3.1-2.2,6.3-2.2,9.6c0,12.2,9.9,22.1,22,22.1l101.1,0l101.1,0c12.1,0,22-9.9,22-22.1C248,212.3,247.3,209.1,245.8,206z
			 M125,217.3c-5.7,0-10.3-4.6-10.3-10.3s4.6-10.3,10.3-10.3c5.7,0,10.3,4.6,10.3,10.3S130.7,217.3,125,217.3z M135.3,181.4
			c0,2.8-2.3,5.1-5.1,5.1h-10.3c-2.8,0-5.1-2.3-5.1-5.1V68.6c0-2.8,2.3-5.1,5.1-5.1h10.3c2.8,0,5.1,2.3,5.1,5.1V181.4z"/>
	</g>
</g>
</svg>
