<svg width="24" height="24" viewBox="0 0 24 24" fill="none" xmlns="http://www.w3.org/2000/svg">
<path d="M21 14C20.7348 14 20.4804 14.1054 20.2929 14.2929C20.1054 14.4804 20 14.7348 20 15V19C20 19.2652 19.8946 19.5196 19.7071 19.7071C19.5196 19.8946 19.2652 20 19 20H5C4.73478 20 4.48043 19.8946 4.29289 19.7071C4.10536 19.5196 4 19.2652 4 19V15C4 14.7348 3.89464 14.4804 3.70711 14.2929C3.51957 14.1054 3.26522 14 3 14C2.73478 14 2.48043 14.1054 2.29289 14.2929C2.10536 14.4804 2 14.7348 2 15V19C2 19.7957 2.31607 20.5587 2.87868 21.1213C3.44129 21.6839 4.20435 22 5 22H19C19.7956 22 20.5587 21.6839 21.1213 21.1213C21.6839 20.5587 22 19.7957 22 19V15C22 14.7348 21.8946 14.4804 21.7071 14.2929C21.5196 14.1054 21.2652 14 21 14Z" fill="#333333"/>
<g clip-path="url(#clip0)">
<path d="M15.2898 9.2901L12.9998 11.5901L12.9998 2.0001C12.9998 1.73489 12.8945 1.48053 12.7069 1.293C12.5194 1.10546 12.265 1.0001 11.9998 1.0001C11.7346 1.0001 11.4802 1.10546 11.2927 1.293C11.1052 1.48053 10.9998 1.73489 10.9998 2.0001L10.9998 11.5901L8.70981 9.2901C8.61685 9.19637 8.50625 9.12198 8.38439 9.07121C8.26253 9.02044 8.13183 8.9943 7.99982 8.9943C7.8678 8.9943 7.7371 9.02044 7.61524 9.07121C7.49338 9.12198 7.38278 9.19637 7.28982 9.2901C7.19609 9.38307 7.12169 9.49367 7.07092 9.61553C7.02015 9.73738 6.99402 9.86809 6.99402 10.0001C6.99402 10.1321 7.02015 10.2628 7.07092 10.3847C7.12169 10.5065 7.19609 10.6171 7.28982 10.7101L11.2898 14.7101C11.3849 14.8011 11.4971 14.8725 11.6198 14.9201C11.8633 15.0201 12.1364 15.0201 12.3798 14.9201C12.5026 14.8725 12.6147 14.8011 12.7098 14.7101L16.7098 10.7101C16.8031 10.6169 16.877 10.5062 16.9275 10.3844C16.9779 10.2625 17.0039 10.132 17.0039 10.0001C17.0039 9.86824 16.9779 9.73768 16.9275 9.61585C16.877 9.49403 16.8031 9.38334 16.7098 9.2901C16.6166 9.19687 16.5059 9.1229 16.3841 9.07244C16.2622 9.02198 16.1317 8.99601 15.9998 8.99601C15.868 8.99601 15.7374 9.02198 15.6156 9.07244C15.4937 9.1229 15.3831 9.19686 15.2898 9.2901Z" fill="#333333"/>
</g>
<defs>
<clipPath id="clip0">
<rect width="12" height="14" fill="white" transform="translate(18 15) rotate(-180)"/>
</clipPath>
</defs>
</svg>


