<?xml version="1.0" encoding="utf-8"?>
<!-- Generator: Adobe Illustrator 24.0.1, SVG Export Plug-In . SVG Version: 6.00 Build 0)  -->
<svg version="1.1" id="Layer_1" xmlns="http://www.w3.org/2000/svg" xmlns:xlink="http://www.w3.org/1999/xlink" x="0px" y="0px"
	 viewBox="0 0 20 20" style="enable-background:new 0 0 20 20;" xml:space="preserve">
<style type="text/css">
	.st0{fill:#757575;}
</style>
<g transform="translate(0.000000,413.000000) scale(0.100000,-0.100000)">
	<path class="st0" d="M99.3,4126.7c-0.6-0.7-14.9-24.4-15.2-25.1c-0.2-0.4,15.6-27,15.8-26.8c0.1,0.1,3.6,6,7.9,13.1
		c8,13.2,8.2,13.8,6.6,15.8c-0.3,0.4-3.5,5.5-6.9,11.3C99.9,4127.7,100,4127.6,99.3,4126.7z"/>
	<path class="st0" d="M11.1,4119.7c0.4-1.4,5.1-14.6,11.2-31.9l4.3-12.1l6.3-2.3c6-2.1,10.2-3.6,30.8-10.8l8.4-3l-2,5.6
		c-1.2,3.1-3.4,9.3-5,13.9c-1.6,4.6-4.2,11.8-5.7,16.1c-1.5,4.3-2.9,8.2-3.1,8.8c-0.2,0.8-2,1.6-7.2,3.4c-3.8,1.4-12.2,4.3-18.7,6.6
		c-13.8,4.9-19.2,6.8-19.4,6.8C10.8,4120.8,10.9,4120.3,11.1,4119.7z"/>
	<path class="st0" d="M182.9,4118.8c-2.9-1.1-9.9-3.6-15.6-5.5c-5.7-2-13.2-4.7-16.8-6l-6.5-2.4l-1.9-5.2c-1.1-2.9-2.4-6.8-3.1-8.8
		c-0.7-1.9-2.4-6.8-3.8-10.8c-4.7-13.3-7-19.9-7-20.2c0-0.2,0.6-0.1,1.4,0.2c0.8,0.3,4.8,1.8,8.9,3.2c23.8,8.4,33.7,11.9,34.4,12.3
		c0.4,0.3,1.1,1.4,1.4,2.6c0.3,1.2,0.8,2.6,1.1,3.2c0.3,0.6,2.1,5.6,4.1,11.3c3.4,9.8,7.5,21.3,9.2,26c0.6,1.6,0.6,2.1,0.2,2.1
		C188.4,4120.7,185.8,4119.8,182.9,4118.8z"/>
	<path class="st0" d="M94,4060.2c-13.8-2.9-23.5-14.4-23.9-28.4c-0.5-20.7,19.3-35.4,39-29.1c16.9,5.5,25.3,24.6,17.9,40.7
		C121.1,4056.1,107.5,4063,94,4060.2z"/>
	<path class="st0" d="M13.8,4039.2c-7-4.2-12.8-7.9-12.8-8.2c0-0.5,24.3-15.5,25.4-15.8c0.5-0.1,26.4,15.3,26.4,15.7
		c0.1,0.2-4.3,2.9-9.6,6c-5.3,3.2-10,6-10.4,6.3c-0.4,0.4-2,1.3-3.5,2.2l-2.8,1.5L13.8,4039.2z"/>
	<path class="st0" d="M159.8,4039.1c-7-4.3-12.8-7.9-12.9-8.1c-0.2-0.4,2.3-2,5.9-4c1-0.5,5.9-3.5,10.9-6.5l9.1-5.6l6.7,4.1
		c3.7,2.2,7.1,4.3,7.7,4.6c3.5,2,11.8,7.1,11.8,7.3c0,0.2-2.4,1.7-5.4,3.5s-8.6,5.2-12.5,7.6c-3.9,2.4-7.4,4.4-7.8,4.6
		C172.9,4046.8,166.9,4043.4,159.8,4039.1z"/>
	<path class="st0" d="M49.5,3995.9l-22.3-7.9l-0.8-2.3c-0.5-1.2-1-2.8-1.3-3.5s-1.5-4-2.6-7.3c-1.2-3.3-4.1-11.7-6.6-18.8
		c-2.5-7-4.5-12.9-4.5-13.1c0-0.6-0.1-0.6,20.6,6.8c9.8,3.5,19.3,6.8,21,7.4c2.6,0.9,3.3,1.4,3.9,2.6c0.7,1.6,4.7,12.5,5,13.8
		c0.1,0.4,1,3,2,5.8c1,2.8,2,5.6,2.3,6.3c2.2,6.3,6.1,17.3,6.3,17.6c0.2,0.3,0.1,0.5-0.2,0.4C72,4003.8,61.7,4000.3,49.5,3995.9z"/>
	<path class="st0" d="M128,4002.8c0.8-2.5,8.8-25.3,9.3-26.3c0.3-0.6,0.6-1.5,0.7-2.1c0.1-0.6,0.5-1.6,0.8-2.1
		c0.3-0.6,0.4-1.1,0.2-1.1c-0.2,0-0.1-0.3,0.2-0.6c0.3-0.4,1.4-3.2,2.5-6.3c1.9-5.6,2-5.7,4-6.4c7.9-2.9,12.6-4.6,20.1-7.2
		c4.7-1.7,11.8-4.2,15.8-5.6s7.3-2.5,7.3-2.4c0.1,0.1-4,11.9-10.4,29.7c-1.4,3.9-3.1,8.7-3.8,10.8c-0.7,2.1-1.6,4-1.9,4.4
		c-0.3,0.3-4.7,2.1-9.8,3.8c-13.3,4.7-33.2,11.7-34.3,12.2C127.7,4004,127.7,4003.9,128,4002.8z"/>
	<path class="st0" d="M92,3972.4c-4.3-7-7.8-13-7.9-13.2c-0.1-0.3,1.2-2.7,2.8-5.3c1.6-2.7,3.3-5.4,3.7-6.1
		c4.9-8.4,9.2-15.1,9.5-14.8c0.5,0.5,15.1,24.6,15.4,25.5c0.2,0.5-12.3,22.1-15.1,25.9C99.9,3985.2,98.9,3983.7,92,3972.4z"/>
</g>
</svg>
