<svg width="18" height="10" viewBox="0 0 18 10" fill="none" xmlns="http://www.w3.org/2000/svg">
    <path d="M2.26366 1.65683C3.13033 1.0335 4.14449 0.833496 4.83366 0.833496H6.50033C6.72134 0.833496 6.9333 0.921294 7.08958 1.07757C7.24586 1.23385 7.33366 1.44582 7.33366 1.66683C7.33366 1.88784 7.24586 2.0998 7.08958 2.25608C6.9333 2.41237 6.72134 2.50016 6.50033 2.50016H4.83366C4.41116 2.50016 3.75949 2.6335 3.23699 3.01016C2.75699 3.35516 2.33366 3.9385 2.33366 5.00016C2.33366 6.06183 2.75699 6.64516 3.23699 6.991C3.75949 7.366 4.41199 7.50016 4.83366 7.50016H6.50033C6.72134 7.50016 6.9333 7.58796 7.08958 7.74424C7.24586 7.90052 7.33366 8.11248 7.33366 8.3335C7.33366 8.55451 7.24586 8.76647 7.08958 8.92275C6.9333 9.07903 6.72134 9.16683 6.50033 9.16683H4.83366C4.14449 9.16683 3.13033 8.96683 2.26366 8.3435C1.35449 7.6885 0.666992 6.60516 0.666992 5.00016C0.666992 3.39516 1.35449 2.31183 2.26366 1.65683ZM10.667 1.66683C10.667 1.44582 10.7548 1.23385 10.9111 1.07757C11.0674 0.921294 11.2793 0.833496 11.5003 0.833496H13.167C13.8562 0.833496 14.8703 1.0335 15.737 1.65683C16.6462 2.31183 17.3337 3.39516 17.3337 5.00016C17.3337 6.60516 16.6462 7.6885 15.737 8.3435C14.8703 8.96683 13.8562 9.16683 13.167 9.16683H11.5003C11.2793 9.16683 11.0674 9.07903 10.9111 8.92275C10.7548 8.76647 10.667 8.55451 10.667 8.3335C10.667 8.11248 10.7548 7.90052 10.9111 7.74424C11.0674 7.58796 11.2793 7.50016 11.5003 7.50016H13.167C13.5895 7.50016 14.2412 7.36683 14.7637 6.991C15.242 6.64516 15.667 6.06183 15.667 5.00016C15.667 3.9385 15.2428 3.35516 14.7637 3.01016C14.2412 2.6335 13.5887 2.50016 13.167 2.50016H11.5003C11.2793 2.50016 11.0674 2.41237 10.9111 2.25608C10.7548 2.0998 10.667 1.88784 10.667 1.66683ZM4.83366 5.00016C4.83366 4.77915 4.92146 4.56719 5.07774 4.41091C5.23402 4.25463 5.44598 4.16683 5.66699 4.16683H12.3337C12.5547 4.16683 12.7666 4.25463 12.9229 4.41091C13.0792 4.56719 13.167 4.77915 13.167 5.00016C13.167 5.22118 13.0792 5.43314 12.9229 5.58942C12.7666 5.7457 12.5547 5.8335 12.3337 5.8335H5.66699C5.44598 5.8335 5.23402 5.7457 5.07774 5.58942C4.92146 5.43314 4.83366 5.22118 4.83366 5.00016Z" fill="#42D39A"/>
</svg>
