<svg width="7" height="12" viewBox="0 0 7 12" fill="none" xmlns="http://www.w3.org/2000/svg">
<path d="M0.717556 2.10977L4.59756 5.99978L0.707557 9.88978C0.614975 9.98236 0.541535 10.0923 0.491429 10.2132C0.441324 10.3342 0.415536 10.4638 0.415536 10.5948C0.415536 10.7257 0.441324 10.8554 0.491429 10.9763C0.541534 11.0973 0.614975 11.2072 0.707557 11.2998C0.800138 11.3924 0.910048 11.4658 1.03101 11.5159C1.15198 11.566 1.28163 11.5918 1.41256 11.5918C1.54349 11.5918 1.67313 11.566 1.7941 11.5159C1.91506 11.4658 2.02497 11.3924 2.11756 11.2998L6.70756 6.70978C6.80026 6.61726 6.87381 6.50737 6.92399 6.3864C6.97417 6.26543 7 6.13575 7 6.00478C7 5.87381 6.97417 5.74413 6.92399 5.62315C6.87381 5.50218 6.80026 5.39229 6.70756 5.29978L2.11756 0.709775C1.72756 0.319775 1.09756 0.319775 0.707558 0.709775C0.523973 0.897138 0.421979 1.14953 0.423853 1.41184C0.425726 1.67415 0.531313 1.92505 0.717556 2.10977Z" fill="#333333"/>
</svg>
