<svg width="7" height="12" viewBox="0 0 7 12" fill="none" xmlns="http://www.w3.org/2000/svg">
<path d="M6.28244 9.89022L2.40244 6.00022L6.29244 2.11022C6.38503 2.01764 6.45847 1.90773 6.50857 1.78677C6.55868 1.6658 6.58446 1.53615 6.58446 1.40522C6.58446 1.27429 6.55868 1.14464 6.50857 1.02368C6.45847 0.902716 6.38503 0.792805 6.29244 0.700223C6.19986 0.607642 6.08995 0.534202 5.96899 0.484097C5.84802 0.433992 5.71837 0.408203 5.58744 0.408203C5.45651 0.408203 5.32687 0.433992 5.2059 0.484097C5.08494 0.534202 4.97503 0.607642 4.88244 0.700223L0.292444 5.29022C0.199741 5.38274 0.126193 5.49263 0.0760117 5.6136C0.0258302 5.73457 0 5.86425 0 5.99522C0 6.12619 0.0258302 6.25587 0.0760117 6.37685C0.126193 6.49782 0.199741 6.60771 0.292444 6.70022L4.88244 11.2902C5.27244 11.6802 5.90244 11.6802 6.29244 11.2902C6.47603 11.1029 6.57802 10.8505 6.57615 10.5882C6.57427 10.3259 6.46869 10.0749 6.28244 9.89022Z" fill="#333333"/>
</svg>
