<?xml version="1.0" encoding="utf-8"?>
<svg width="30" height="30" viewBox="0 0 18 30" fill="none" xmlns="http://www.w3.org/2000/svg">
<path d="M9.39441 0.0883846C9.22973 0.118326 8.72073 0.223122 8.27161 0.312946C7.82248 0.402771 6.87933 0.747097 6.1757 1.07645C5.12775 1.58546 4.67863 1.91482 3.63067 2.97774C2.92705 3.68137 2.1336 4.65446 1.84915 5.13353C1.08564 6.43598 0.367048 8.69657 0.157458 10.4332C-0.141957 12.9782 0.39699 15.8676 1.60962 18.2629C2.07371 19.1611 2.98693 20.5534 3.19652 20.6732C3.2564 20.7031 6.47512 16.7957 10.3525 11.9752L17.4187 3.21727L16.775 2.63341C14.724 0.777039 11.5203 -0.330797 9.39441 0.0883846ZM6.63979 6.54078C6.92424 6.81025 6.8943 6.85517 5.5619 8.53189C4.81336 9.47505 4.16962 10.2535 4.10974 10.2386C3.8702 10.2086 3.48096 9.14569 3.48096 8.53189C3.48096 7.13961 4.51395 6.04674 5.71161 6.18148C6.0709 6.22639 6.49009 6.3761 6.63979 6.54078ZM7.01406 9.22054C7.70272 10.8524 6.57991 12.7087 4.99301 12.5291C4.63371 12.4842 4.21453 12.3345 4.06482 12.1848C3.79535 11.9003 3.82529 11.8554 5.17266 10.2236C5.9212 9.31037 6.59488 8.59177 6.66973 8.63668C6.74459 8.6816 6.8943 8.9361 7.01406 9.22054Z" fill="#363895"/>
<path d="M7.14881 17.8438C3.36121 22.5446 0.17244 26.5118 0.0676448 26.6615C-0.0970335 26.9011 -0.00720897 27.0208 0.861095 27.7394C2.67256 29.2365 4.69361 30 6.8494 30C8.52612 30 9.48425 29.7754 11.1161 29.0119C12.164 28.5029 12.6131 28.1736 13.6611 27.1106C14.3647 26.407 15.1582 25.4339 15.4426 24.9549C16.2061 23.6524 16.9247 21.3918 17.1343 19.6552C17.5086 16.4365 16.5954 12.8884 14.6641 10.1338C14.3348 9.66972 14.0653 9.28048 14.0503 9.28048C14.0354 9.28048 10.9364 13.1429 7.14881 17.8438Z" fill="#363895"/>
</svg>
