<?xml version="1.0" encoding="utf-8"?>
<!-- Generator: Adobe Illustrator 26.3.1, SVG Export Plug-In . SVG Version: 6.00 Build 0)  -->
<svg version="1.1" id="Layer_1" xmlns="http://www.w3.org/2000/svg" xmlns:xlink="http://www.w3.org/1999/xlink" x="0px" y="0px"
	 viewBox="0 0 226 226" style="enable-background:new 0 0 226 226;" xml:space="preserve">
<style type="text/css">
	.st0{fill:#FFFFFF;}
</style>
<g>
	<path class="st0" d="M109.3,164.8c-3.6,3-6.7,6.5-10.5,9.1c-9.2,6.4-19.3,9.5-30.4,10c-1.8,0.1-3.8,0.3-5-1.5c-1.3-2-0.1-3.9,1-5.5
		c1.8-2.8,3.7-5.5,5.8-8.7c-4.4-0.7-8.4-1.2-12.4-1.9c-8.8-1.6-16.9-4.8-24.6-9.4c-4.5-2.7-4.5-4.8,0-7.5
		c11.1-6.7,23.1-10.1,36-10.9c1.3-0.1,2.6-0.2,4.6-0.3c-5-5-9.8-9.2-13.9-14.2c-8.8-10.8-15-22.8-18.5-36.2
		c-1.6-5.9-0.1-7.5,5.9-5.9c15.5,4,29.1,11.4,40.8,22.2c1.4,1.3,2.9,2.6,5.3,4.8c-1.3-10.7-1.5-20.1-0.4-29.5
		c2-17.3,7.4-33.4,16.5-48.3c2.5-4.2,4.7-4.1,7.3,0.3c13,21.8,18.8,45.4,16.5,70.7c-0.1,1.3-0.2,2.7-0.3,4c0,0.5,0.1,1,0.3,2
		c3.6-3.1,6.9-6.1,10.3-8.8c10.5-8.5,22.4-14.3,35.5-17.6c5.6-1.4,7.2,0.2,5.7,5.8c-4.9,18.5-14.5,34.2-28.8,47
		c-1.1,1-2.6,1.6-3.1,3.5c7,0.7,13.9,1.2,20.6,3c6.9,1.9,13.5,4.6,19.7,8.4c4.1,2.5,4.1,4.8,0,7.3c-9.7,5.8-20.2,9.3-31.5,10.5
		c-1.8,0.2-3.7-0.2-5.5,1.2c1.5,2.2,3.1,4.3,4.4,6.5c1.3,2.2,3.8,4.4,2.2,7.2c-1.6,2.9-4.7,1.7-7.3,1.6c-14.4-1-26.6-6.7-36.6-17.2
		c-0.5-0.6-1.2-1.1-2.7-2.4c0,7.2,0,13.4,0,19.6c0,2.7,0.1,5.3,0,8c-0.1,2.5,1,6.1-2.9,6.3c-4,0.1-3.1-3.5-3.2-6
		c-0.1-7.3,0-14.7-0.1-22C109.9,168.4,110.4,166.7,109.3,164.8z M113.1,38.6C94.1,67.1,93.7,116,113,145.7
		C132,117,132.3,68.1,113.1,38.6z M105.6,146.9c-6.5-12.5-8.6-26.9-20-36.8c-10.9-9.4-22.4-17.2-36.8-21.3
		C52.6,112.5,84.4,144.8,105.6,146.9z M120.7,146.9c21-2,56.1-38.1,56-57.6c-8.7,1.5-21.2,8.8-31.8,16.8
		C131,116.5,126.8,132.2,120.7,146.9z M103.5,154.7c-21.2-13.6-42-12.3-64.2-1.6C61.2,163.8,81.9,164,103.5,154.7z M123,154.5
		c17.8,9.9,50.2,9,62.9-1.9C164.5,142.5,143.7,141,123,154.5z M102,162.9c-6.5,1.5-11.5,3.4-16.7,3.8c-6.9,0.6-9.6,5.5-13.8,10.7
		C83.6,176,93,171.6,102,162.9z M153.8,177.3c-5.8-13.4-18.8-9.9-28.3-13.8C133.1,171.6,142.4,175.9,153.8,177.3z"/>
	<path class="st0" d="M113,20c51.3,0,93,41.7,93,93s-41.7,93-93,93s-93-41.7-93-93S61.7,20,113,20 M113,13C57.8,13,13,57.8,13,113
		s44.8,100,100,100s100-44.8,100-100S168.2,13,113,13L113,13z"/>
</g>
</svg>
