<?xml version="1.0" encoding="utf-8"?>
<!-- Generator: Adobe Illustrator 26.3.1, SVG Export Plug-In . SVG Version: 6.00 Build 0)  -->
<svg version="1.1" id="Layer_1" xmlns="http://www.w3.org/2000/svg" xmlns:xlink="http://www.w3.org/1999/xlink" x="0px" y="0px"
	 viewBox="0 0 288 288" style="enable-background:new 0 0 288 288;" xml:space="preserve">
<style type="text/css">
	.st0{fill:#999999;}
</style>
<g>
	<path class="st0" d="M250.4,81.5c1.5,0,3,0.4,4.4,1.1c1.4,0.8,2.5,1.9,3.3,3.3c1.6,2.7,1.6,6.1,0,8.8c-0.7,1.4-1.9,2.5-3.2,3.3
		c-2.7,1.6-6.1,1.6-8.8,0c-1.4-0.8-2.5-1.9-3.3-3.3c-1.6-2.7-1.6-6.1,0-8.8c0.8-1.4,1.9-2.5,3.3-3.3
		C247.4,81.9,248.9,81.5,250.4,81.5z M250.4,83.2c-1.2,0-2.4,0.3-3.5,0.9c-1.1,0.6-2,1.5-2.6,2.6c-1.3,2.2-1.3,4.9,0,7.1
		c0.6,1.1,1.5,2,2.6,2.6c2.2,1.3,4.9,1.3,7.1,0c1.1-0.6,2-1.5,2.6-2.6c0.6-1.1,0.9-2.3,0.9-3.5c0-1.3-0.4-2.5-1-3.6
		c-0.6-1.1-1.5-2-2.6-2.6C252.8,83.5,251.6,83.2,250.4,83.2L250.4,83.2z M246.7,95v-9.4h1.9c1.8,0,2.8,0,3,0c0.5,0,1,0.2,1.5,0.4
		c0.4,0.2,0.7,0.5,0.9,0.9c0.2,0.4,0.4,0.9,0.4,1.3c0,0.6-0.2,1.3-0.7,1.7c-0.5,0.5-1.2,0.8-1.9,0.9c0.2,0.1,0.5,0.2,0.7,0.4
		c0.2,0.2,0.4,0.5,0.6,0.7c0.1,0.1,0.3,0.5,0.7,1.1l1.1,1.9h-2.4l-0.8-1.5c-0.3-0.7-0.8-1.4-1.3-1.9c-0.4-0.3-0.8-0.4-1.3-0.4h-0.5
		V95H246.7z M248.6,89.7h0.8c0.7,0,1.3,0,2-0.1c0.2-0.1,0.5-0.2,0.6-0.4c0.2-0.2,0.2-0.5,0.2-0.7c0-0.2-0.1-0.5-0.2-0.7
		c-0.2-0.2-0.4-0.4-0.6-0.4c-0.7-0.1-1.3-0.2-2-0.1h-0.8L248.6,89.7z"/>
	<path class="st0" d="M90.4,147.8l-11.5-43.3h-0.2l-11,43.3H49.3L28.8,83.2h18.7l11.9,43.8h0.2l10.7-43.8h17.2l11,43.7h0.2
		l11.9-43.7H129l-20.4,64.6H90.4z M155.4,83.2V92h0.2c2.2-3.2,5.1-5.8,8.4-7.7c3.5-1.9,7.4-2.8,11.3-2.8c3.9,0,7.7,0.8,11.2,2.4
		c3.5,1.7,6.3,4.7,7.7,8.4c2.1-3,4.7-5.5,7.8-7.5c3.5-2.2,7.6-3.3,11.7-3.2c3.2,0,6.4,0.4,9.5,1.2c2.8,0.8,5.3,2.1,7.5,4
		c2.2,2,3.9,4.4,4.9,7.2c1.2,3.4,1.8,7,1.7,10.7v43.2h-17.7v-36.6c0-2.2-0.1-4.2-0.2-6.1c-0.1-1.7-0.6-3.4-1.4-5
		c-0.8-1.4-1.9-2.6-3.3-3.4c-1.8-0.9-3.9-1.3-5.9-1.2c-2.1-0.1-4.2,0.4-6,1.4c-1.5,0.9-2.8,2.2-3.6,3.7c-0.9,1.6-1.5,3.4-1.8,5.2
		c-0.3,2-0.4,4-0.4,5.9v36h-17.8v-36.3c0-1.9,0-3.8-0.1-5.7c-0.1-1.8-0.4-3.5-1.1-5.2c-0.6-1.6-1.7-2.9-3.1-3.8
		c-2-1.1-4.2-1.6-6.4-1.4c-1.1,0-2.2,0.2-3.3,0.6c-1.5,0.4-2.8,1.1-4,2.1c-1.4,1.2-2.6,2.8-3.3,4.5c-1,2.4-1.5,5.1-1.4,7.7v37.5
		h-17.7V83.2H155.4z"/>
	<path class="st0" d="M133.8,185.6c38.3,0,57.8-14.6,57.8-14.6l8.2,11.2c0,0-28.6,24.3-66,24.3s-66-24.3-66-24.3l8.2-11.2
		C76.1,171.1,95.5,185.6,133.8,185.6z"/>
</g>
</svg>
